<mxfile host="app.diagrams.net" modified="2024-05-11T08:40:25.517Z" agent="Mozilla/5.0 (Windows NT 10.0; Win64; x64) AppleWebKit/537.36 (KHTML, like Gecko) Chrome/124.0.0.0 Safari/537.36" etag="uzJBGF152us75NQ7mqPS" version="24.3.1" type="github">
  <diagram id="wFE0QG_FPsp0jaGvCLVb" name="Page-1">
    <mxGraphModel dx="3428" dy="922" grid="1" gridSize="10" guides="1" tooltips="1" connect="1" arrows="1" fold="1" page="1" pageScale="1" pageWidth="850" pageHeight="1100" math="0" shadow="0">
      <root>
        <mxCell id="0" />
        <mxCell id="1" parent="0" />
        <mxCell id="s_7mGbBZ-8Ej9yZiGYav-41" value="" style="whiteSpace=wrap;html=1;labelBorderColor=#CC0000;strokeColor=#990000;strokeWidth=4;" vertex="1" parent="1">
          <mxGeometry x="-300" y="740" width="80" height="160" as="geometry" />
        </mxCell>
        <mxCell id="s_7mGbBZ-8Ej9yZiGYav-25" value="" style="whiteSpace=wrap;html=1;" vertex="1" parent="1">
          <mxGeometry x="-870" y="80" width="2210" height="370" as="geometry" />
        </mxCell>
        <mxCell id="s_7mGbBZ-8Ej9yZiGYav-1" value="&lt;font style=&quot;font-size: 20px;&quot;&gt;interupt vector&lt;/font&gt;" style="rounded=0;whiteSpace=wrap;html=1;fillColor=#dae8fc;strokeColor=#6c8ebf;fontStyle=0;fontSize=20;" vertex="1" parent="1">
          <mxGeometry x="-840" y="210" width="150" height="40" as="geometry" />
        </mxCell>
        <mxCell id="s_7mGbBZ-8Ej9yZiGYav-2" value="bios data area" style="rounded=0;whiteSpace=wrap;html=1;fillColor=#d5e8d4;strokeColor=#82b366;fontStyle=0;fontSize=20;" vertex="1" parent="1">
          <mxGeometry x="-690" y="210" width="150" height="40" as="geometry" />
        </mxCell>
        <mxCell id="s_7mGbBZ-8Ej9yZiGYav-4" value="" style="rounded=0;whiteSpace=wrap;html=1;fillColor=#ffe6cc;strokeColor=#d79b00;fontStyle=0;fontSize=20;" vertex="1" parent="1">
          <mxGeometry x="-540" y="210" width="90" height="40" as="geometry" />
        </mxCell>
        <mxCell id="s_7mGbBZ-8Ej9yZiGYav-5" value="boot sector" style="rounded=0;whiteSpace=wrap;html=1;fillColor=#fff2cc;strokeColor=#d6b656;fontStyle=0;fontSize=20;" vertex="1" parent="1">
          <mxGeometry x="-450" y="210" width="150" height="40" as="geometry" />
        </mxCell>
        <mxCell id="s_7mGbBZ-8Ej9yZiGYav-6" value="" style="rounded=0;whiteSpace=wrap;html=1;fillColor=#ffe6cc;strokeColor=#d79b00;fontStyle=0;fontSize=20;" vertex="1" parent="1">
          <mxGeometry x="-300" y="210" width="90" height="40" as="geometry" />
        </mxCell>
        <mxCell id="s_7mGbBZ-8Ej9yZiGYav-7" value="Video RAM MEM" style="rounded=0;whiteSpace=wrap;html=1;fillColor=#f8cecc;strokeColor=#b85450;fontStyle=0;fontSize=20;" vertex="1" parent="1">
          <mxGeometry x="-210" y="210" width="190" height="40" as="geometry" />
        </mxCell>
        <mxCell id="s_7mGbBZ-8Ej9yZiGYav-8" value="Microchrome video Memory" style="rounded=0;whiteSpace=wrap;html=1;fillColor=#e1d5e7;strokeColor=#9673a6;fontStyle=0;fontSize=20;" vertex="1" parent="1">
          <mxGeometry x="-20" y="210" width="290" height="40" as="geometry" />
        </mxCell>
        <mxCell id="s_7mGbBZ-8Ej9yZiGYav-9" value="Color Video Memory" style="rounded=0;whiteSpace=wrap;html=1;fillColor=#f0a30a;strokeColor=#BD7000;fontStyle=0;fontSize=20;fontColor=#000000;" vertex="1" parent="1">
          <mxGeometry x="270" y="210" width="240" height="40" as="geometry" />
        </mxCell>
        <mxCell id="s_7mGbBZ-8Ej9yZiGYav-10" value="Video ROM BIOS" style="rounded=0;whiteSpace=wrap;html=1;fillColor=#6d8764;strokeColor=#3A5431;fontStyle=0;fontSize=20;fontColor=#ffffff;" vertex="1" parent="1">
          <mxGeometry x="510" y="210" width="240" height="40" as="geometry" />
        </mxCell>
        <mxCell id="s_7mGbBZ-8Ej9yZiGYav-11" value="BIOS Shadow Area" style="rounded=0;whiteSpace=wrap;html=1;fillColor=#e3c800;strokeColor=#B09500;fontStyle=0;fontSize=20;fontColor=#000000;" vertex="1" parent="1">
          <mxGeometry x="740" y="210" width="240" height="40" as="geometry" />
        </mxCell>
        <mxCell id="s_7mGbBZ-8Ej9yZiGYav-12" value="System BIOS" style="rounded=0;whiteSpace=wrap;html=1;fillColor=#e3c800;strokeColor=#B09500;fontStyle=0;fontSize=20;fontColor=#000000;" vertex="1" parent="1">
          <mxGeometry x="980" y="210" width="240" height="40" as="geometry" />
        </mxCell>
        <mxCell id="s_7mGbBZ-8Ej9yZiGYav-13" value="&lt;font style=&quot;font-size: 16px;&quot;&gt;0X0&lt;/font&gt;" style="text;strokeColor=none;align=center;fillColor=none;html=1;verticalAlign=middle;whiteSpace=wrap;rounded=0;" vertex="1" parent="1">
          <mxGeometry x="-870" y="260" width="60" height="30" as="geometry" />
        </mxCell>
        <mxCell id="s_7mGbBZ-8Ej9yZiGYav-14" value="&lt;font style=&quot;font-size: 16px;&quot;&gt;0X400&lt;/font&gt;" style="text;strokeColor=none;align=center;fillColor=none;html=1;verticalAlign=middle;whiteSpace=wrap;rounded=0;" vertex="1" parent="1">
          <mxGeometry x="-720" y="260" width="60" height="30" as="geometry" />
        </mxCell>
        <mxCell id="s_7mGbBZ-8Ej9yZiGYav-15" value="&lt;font style=&quot;font-size: 16px;&quot;&gt;0X500&lt;/font&gt;" style="text;strokeColor=none;align=center;fillColor=none;html=1;verticalAlign=middle;whiteSpace=wrap;rounded=0;" vertex="1" parent="1">
          <mxGeometry x="-570" y="260" width="60" height="30" as="geometry" />
        </mxCell>
        <mxCell id="s_7mGbBZ-8Ej9yZiGYav-16" value="&lt;font style=&quot;font-size: 16px;&quot;&gt;0X7C00&lt;/font&gt;" style="text;strokeColor=none;align=center;fillColor=none;html=1;verticalAlign=middle;whiteSpace=wrap;rounded=0;" vertex="1" parent="1">
          <mxGeometry x="-470" y="260" width="60" height="30" as="geometry" />
        </mxCell>
        <mxCell id="s_7mGbBZ-8Ej9yZiGYav-17" value="&lt;font style=&quot;font-size: 16px;&quot;&gt;0X7E00&lt;/font&gt;" style="text;strokeColor=none;align=center;fillColor=none;html=1;verticalAlign=middle;whiteSpace=wrap;rounded=0;" vertex="1" parent="1">
          <mxGeometry x="-330" y="260" width="60" height="30" as="geometry" />
        </mxCell>
        <mxCell id="s_7mGbBZ-8Ej9yZiGYav-18" value="&lt;font style=&quot;font-size: 16px;&quot;&gt;0XA0000&lt;/font&gt;" style="text;strokeColor=none;align=center;fillColor=none;html=1;verticalAlign=middle;whiteSpace=wrap;rounded=0;" vertex="1" parent="1">
          <mxGeometry x="-240" y="260" width="60" height="30" as="geometry" />
        </mxCell>
        <mxCell id="s_7mGbBZ-8Ej9yZiGYav-19" value="&lt;font style=&quot;font-size: 16px;&quot;&gt;0XB0000&lt;/font&gt;" style="text;strokeColor=none;align=center;fillColor=none;html=1;verticalAlign=middle;whiteSpace=wrap;rounded=0;" vertex="1" parent="1">
          <mxGeometry x="-50" y="260" width="60" height="30" as="geometry" />
        </mxCell>
        <mxCell id="s_7mGbBZ-8Ej9yZiGYav-20" value="&lt;font style=&quot;font-size: 16px;&quot;&gt;0XB8000&lt;/font&gt;" style="text;strokeColor=none;align=center;fillColor=none;html=1;verticalAlign=middle;whiteSpace=wrap;rounded=0;" vertex="1" parent="1">
          <mxGeometry x="250" y="260" width="60" height="30" as="geometry" />
        </mxCell>
        <mxCell id="s_7mGbBZ-8Ej9yZiGYav-21" value="&lt;font style=&quot;font-size: 16px;&quot;&gt;0XC0000&lt;/font&gt;" style="text;strokeColor=none;align=center;fillColor=none;html=1;verticalAlign=middle;whiteSpace=wrap;rounded=0;" vertex="1" parent="1">
          <mxGeometry x="490" y="260" width="60" height="30" as="geometry" />
        </mxCell>
        <mxCell id="s_7mGbBZ-8Ej9yZiGYav-22" value="&lt;font style=&quot;font-size: 16px;&quot;&gt;0XC8000&lt;/font&gt;" style="text;strokeColor=none;align=center;fillColor=none;html=1;verticalAlign=middle;whiteSpace=wrap;rounded=0;" vertex="1" parent="1">
          <mxGeometry x="720" y="260" width="60" height="30" as="geometry" />
        </mxCell>
        <mxCell id="s_7mGbBZ-8Ej9yZiGYav-23" value="&lt;font style=&quot;font-size: 16px;&quot;&gt;0XF0000&lt;/font&gt;" style="text;strokeColor=none;align=center;fillColor=none;html=1;verticalAlign=middle;whiteSpace=wrap;rounded=0;" vertex="1" parent="1">
          <mxGeometry x="960" y="260" width="60" height="30" as="geometry" />
        </mxCell>
        <mxCell id="s_7mGbBZ-8Ej9yZiGYav-24" value="&lt;font style=&quot;font-size: 16px;&quot;&gt;0XFFFFF&lt;/font&gt;" style="text;strokeColor=none;align=center;fillColor=none;html=1;verticalAlign=middle;whiteSpace=wrap;rounded=0;" vertex="1" parent="1">
          <mxGeometry x="1190" y="260" width="60" height="30" as="geometry" />
        </mxCell>
        <mxCell id="s_7mGbBZ-8Ej9yZiGYav-26" value="&lt;font style=&quot;font-size: 20px;&quot;&gt;实模式下的1MB地址空间分配&lt;/font&gt;" style="text;strokeColor=none;align=center;fillColor=none;html=1;verticalAlign=middle;whiteSpace=wrap;rounded=0;fontStyle=1" vertex="1" parent="1">
          <mxGeometry x="-860" y="130" width="310" height="30" as="geometry" />
        </mxCell>
        <mxCell id="s_7mGbBZ-8Ej9yZiGYav-27" value="&lt;p style=&quot;box-sizing: border-box; outline: 0px; margin: 0px 0px 16px; padding: 0px; font-size: 16px; color: rgb(77, 77, 77); overflow: auto hidden; font-synthesis-style: auto; overflow-wrap: break-word; font-family: -apple-system, &amp;quot;SF UI Text&amp;quot;, Arial, &amp;quot;PingFang SC&amp;quot;, &amp;quot;Hiragino Sans GB&amp;quot;, &amp;quot;Microsoft YaHei&amp;quot;, &amp;quot;WenQuanYi Micro Hei&amp;quot;, sans-serif, SimHei, SimSun; text-align: start; background-color: rgb(255, 255, 255); line-height: 24px !important;&quot;&gt;&lt;u&gt;&lt;b&gt;0x7C00&lt;/b&gt;&lt;/u&gt;这个地址来自Intel的第一代个人电脑芯片8088， 当时，搭配的操作系统是86-DOS。这个操作系统需要的内存最少是32KB（0X0000~0X7FFFF）,8088芯片本身需要占用0x0000～0x03FF，用来保存各种中断处理程序的储存位置。（主引导记录本身就是中断信号INT 19h的处理程序。）所以，内存只剩下0x0400～0x7FFF可以使用，为了把尽量多的连续内存留给操作系统，主引导记录就被放到了内存地址的尾部。由于一个扇区是512字节，主引导记录本身也会产生数据，需要另外留出512字节保存。所以，它的预留位置就变成了：0x7FFF - 512 - 512 + 1 = 0x7C00。以后的CPU为了保持兼容，一直使用这个地址。&lt;/p&gt;" style="text;strokeColor=none;align=center;fillColor=none;html=1;verticalAlign=middle;whiteSpace=wrap;rounded=0;" vertex="1" parent="1">
          <mxGeometry x="-845" y="310" width="2125" height="150" as="geometry" />
        </mxCell>
        <mxCell id="s_7mGbBZ-8Ej9yZiGYav-29" value="" style="rounded=0;whiteSpace=wrap;html=1;fillColor=#eeeeee;strokeColor=#36393d;fontStyle=0;fontSize=20;" vertex="1" parent="1">
          <mxGeometry x="-300" y="740" width="50" height="160" as="geometry" />
        </mxCell>
        <mxCell id="s_7mGbBZ-8Ej9yZiGYav-30" value="core.img" style="rounded=0;whiteSpace=wrap;html=1;fillColor=#d5e8d4;strokeColor=#82b366;fontStyle=0;fontSize=20;" vertex="1" parent="1">
          <mxGeometry x="-770" y="670" width="120" height="40" as="geometry" />
        </mxCell>
        <mxCell id="s_7mGbBZ-8Ej9yZiGYav-31" value="" style="rounded=0;whiteSpace=wrap;html=1;fillColor=#ffe6cc;strokeColor=#d79b00;fontStyle=0;fontSize=20;" vertex="1" parent="1">
          <mxGeometry x="-530" y="220" width="90" height="40" as="geometry" />
        </mxCell>
        <mxCell id="s_7mGbBZ-8Ej9yZiGYav-38" value="&lt;font style=&quot;font-size: 20px;&quot;&gt;boot.img&lt;/font&gt;" style="text;strokeColor=none;align=center;fillColor=none;html=1;verticalAlign=middle;whiteSpace=wrap;rounded=0;rotation=-90;" vertex="1" parent="1">
          <mxGeometry x="-310" y="805" width="60" height="30" as="geometry" />
        </mxCell>
        <mxCell id="s_7mGbBZ-8Ej9yZiGYav-39" value="" style="rounded=0;whiteSpace=wrap;html=1;fillColor=#f9f7ed;strokeColor=#36393d;fontStyle=0;fontSize=20;" vertex="1" parent="1">
          <mxGeometry x="-250" y="740" width="30" height="160" as="geometry" />
        </mxCell>
        <mxCell id="s_7mGbBZ-8Ej9yZiGYav-40" value="&lt;font style=&quot;font-size: 16px;&quot;&gt;Magic Number&lt;/font&gt;" style="text;strokeColor=none;align=center;fillColor=none;html=1;verticalAlign=middle;whiteSpace=wrap;rounded=0;rotation=-90;" vertex="1" parent="1">
          <mxGeometry x="-305" y="805" width="140" height="30" as="geometry" />
        </mxCell>
        <mxCell id="s_7mGbBZ-8Ej9yZiGYav-42" value="" style="whiteSpace=wrap;html=1;labelBorderColor=#CC0000;strokeColor=#00CC00;strokeWidth=4;" vertex="1" parent="1">
          <mxGeometry x="-215" y="740" width="80" height="160" as="geometry" />
        </mxCell>
        <mxCell id="s_7mGbBZ-8Ej9yZiGYav-43" value="" style="rounded=0;whiteSpace=wrap;html=1;fillColor=#ffcc99;strokeColor=#36393d;fontStyle=0;fontSize=20;" vertex="1" parent="1">
          <mxGeometry x="-215" y="740" width="50" height="160" as="geometry" />
        </mxCell>
        <mxCell id="s_7mGbBZ-8Ej9yZiGYav-44" value="&lt;font style=&quot;font-size: 20px;&quot;&gt;core.img&lt;/font&gt;" style="text;strokeColor=none;align=center;fillColor=none;html=1;verticalAlign=middle;whiteSpace=wrap;rounded=0;rotation=-90;" vertex="1" parent="1">
          <mxGeometry x="-225" y="805" width="60" height="30" as="geometry" />
        </mxCell>
        <mxCell id="s_7mGbBZ-8Ej9yZiGYav-45" value="" style="rounded=0;whiteSpace=wrap;html=1;fontStyle=0;fontSize=20;" vertex="1" parent="1">
          <mxGeometry x="-165" y="740" width="30" height="160" as="geometry" />
        </mxCell>
        <mxCell id="s_7mGbBZ-8Ej9yZiGYav-46" value="&lt;font style=&quot;font-size: 16px;&quot;&gt;Empty&lt;/font&gt;" style="text;strokeColor=none;align=center;fillColor=none;html=1;verticalAlign=middle;whiteSpace=wrap;rounded=0;rotation=-90;" vertex="1" parent="1">
          <mxGeometry x="-220" y="805" width="140" height="30" as="geometry" />
        </mxCell>
        <mxCell id="s_7mGbBZ-8Ej9yZiGYav-47" value="" style="whiteSpace=wrap;html=1;labelBorderColor=#CC0000;strokeColor=#7EA6E0;strokeWidth=4;" vertex="1" parent="1">
          <mxGeometry x="-130" y="740" width="190" height="160" as="geometry" />
        </mxCell>
        <mxCell id="s_7mGbBZ-8Ej9yZiGYav-48" value="" style="whiteSpace=wrap;html=1;labelBorderColor=#CC0000;strokeColor=#7EA6E0;strokeWidth=4;" vertex="1" parent="1">
          <mxGeometry x="60" y="740" width="190" height="160" as="geometry" />
        </mxCell>
        <mxCell id="s_7mGbBZ-8Ej9yZiGYav-49" value="" style="whiteSpace=wrap;html=1;labelBorderColor=#CC0000;strokeColor=#7EA6E0;strokeWidth=4;" vertex="1" parent="1">
          <mxGeometry x="250" y="740" width="190" height="160" as="geometry" />
        </mxCell>
        <mxCell id="s_7mGbBZ-8Ej9yZiGYav-50" value="" style="whiteSpace=wrap;html=1;labelBorderColor=#CC0000;strokeColor=#7EA6E0;strokeWidth=4;" vertex="1" parent="1">
          <mxGeometry x="440" y="740" width="190" height="160" as="geometry" />
        </mxCell>
        <mxCell id="s_7mGbBZ-8Ej9yZiGYav-51" value="" style="rounded=0;whiteSpace=wrap;html=1;fillColor=#FCFFDE;strokeColor=#36393d;fontStyle=0;fontSize=20;" vertex="1" parent="1">
          <mxGeometry x="-130" y="740" width="140" height="160" as="geometry" />
        </mxCell>
        <mxCell id="s_7mGbBZ-8Ej9yZiGYav-52" value="" style="rounded=0;whiteSpace=wrap;html=1;fillColor=#FCFFDE;strokeColor=#36393d;fontStyle=0;fontSize=20;" vertex="1" parent="1">
          <mxGeometry x="60" y="740" width="140" height="160" as="geometry" />
        </mxCell>
        <mxCell id="s_7mGbBZ-8Ej9yZiGYav-53" value="" style="rounded=0;whiteSpace=wrap;html=1;fillColor=#FCFFDE;strokeColor=#36393d;fontStyle=0;fontSize=20;" vertex="1" parent="1">
          <mxGeometry x="250" y="740" width="70" height="160" as="geometry" />
        </mxCell>
        <mxCell id="s_7mGbBZ-8Ej9yZiGYav-54" value="&lt;font style=&quot;font-size: 16px;&quot;&gt;/boot/grub&lt;/font&gt;" style="text;strokeColor=none;align=center;fillColor=none;html=1;verticalAlign=middle;whiteSpace=wrap;rounded=0;rotation=-90;" vertex="1" parent="1">
          <mxGeometry x="215" y="805" width="140" height="30" as="geometry" />
        </mxCell>
      </root>
    </mxGraphModel>
  </diagram>
</mxfile>
